<svg width="24" height="24" viewBox="0 0 24 24" fill="none" xmlns="http://www.w3.org/2000/svg">
<g clip-path="url(#clip0_1_848)">
<path d="M12.0058 0.181824C7.07106 0.181824 5.62783 0.186915 5.34729 0.210187C4.3346 0.294369 3.70443 0.453824 3.01791 0.795642C2.48884 1.05837 2.07158 1.36291 1.65977 1.78982C0.909792 2.56837 0.455261 3.52619 0.29072 4.66473C0.210722 5.21746 0.18745 5.33019 0.182723 8.15346C0.180905 9.09455 0.182723 10.3331 0.182723 11.9944C0.182723 16.9253 0.188178 18.3671 0.211813 18.6471C0.293629 19.6326 0.44817 20.2526 0.775433 20.9307C1.40087 22.2289 2.59538 23.2035 4.00261 23.5671C4.48987 23.6926 5.02803 23.7616 5.71892 23.7944C6.01164 23.8071 8.99518 23.8162 11.9805 23.8162C14.9659 23.8162 17.9513 23.8126 18.2367 23.798C19.0367 23.7604 19.5012 23.698 20.0148 23.5653C21.4312 23.1998 22.6039 22.2398 23.242 20.9235C23.5629 20.2616 23.7256 19.618 23.7993 18.684C23.8153 18.4804 23.822 15.2336 23.822 11.9913C23.822 8.74837 23.8147 5.50764 23.7987 5.30401C23.7242 4.35492 23.5615 3.71673 23.2302 3.04219C22.9584 2.49001 22.6566 2.07764 22.2184 1.65601C21.4364 0.909096 20.4801 0.454551 19.3405 0.290187C18.7883 0.210369 18.6783 0.186733 15.853 0.181824H12.0058Z" fill="url(#paint0_radial_1_848)"/>
<path d="M12.0058 0.181824C7.07106 0.181824 5.62783 0.186915 5.34729 0.210187C4.3346 0.294369 3.70443 0.453824 3.01791 0.795642C2.48884 1.05837 2.07158 1.36291 1.65977 1.78982C0.909792 2.56837 0.455261 3.52619 0.29072 4.66473C0.210722 5.21746 0.18745 5.33019 0.182723 8.15346C0.180905 9.09455 0.182723 10.3331 0.182723 11.9944C0.182723 16.9253 0.188178 18.3671 0.211813 18.6471C0.293629 19.6326 0.44817 20.2526 0.775433 20.9307C1.40087 22.2289 2.59538 23.2035 4.00261 23.5671C4.48987 23.6926 5.02803 23.7616 5.71892 23.7944C6.01164 23.8071 8.99518 23.8162 11.9805 23.8162C14.9659 23.8162 17.9513 23.8126 18.2367 23.798C19.0367 23.7604 19.5012 23.698 20.0148 23.5653C21.4312 23.1998 22.6039 22.2398 23.242 20.9235C23.5629 20.2616 23.7256 19.618 23.7993 18.684C23.8153 18.4804 23.822 15.2336 23.822 11.9913C23.822 8.74837 23.8147 5.50764 23.7987 5.30401C23.7242 4.35492 23.5615 3.71673 23.2302 3.04219C22.9584 2.49001 22.6566 2.07764 22.2184 1.65601C21.4364 0.909096 20.4801 0.454551 19.3405 0.290187C18.7883 0.210369 18.6783 0.186733 15.853 0.181824H12.0058Z" fill="url(#paint1_radial_1_848)"/>
<path d="M12.0003 3.27271C9.63024 3.27271 9.33279 3.28307 8.40191 3.32543C7.47285 3.36798 6.83869 3.51507 6.2838 3.73089C5.70981 3.9538 5.22292 4.25198 4.73784 4.73725C4.2524 5.22234 3.95423 5.70925 3.7306 6.28307C3.51424 6.83816 3.36697 7.47252 3.32516 8.40125C3.28352 9.33216 3.27261 9.6298 3.27261 12C3.27261 14.3702 3.28316 14.6667 3.32534 15.5976C3.36807 16.5267 3.51515 17.1609 3.73078 17.7158C3.95387 18.2898 4.25204 18.7767 4.7373 19.2618C5.22219 19.7473 5.70909 20.0462 6.2827 20.2691C6.83796 20.4849 7.4723 20.632 8.40119 20.6745C9.33207 20.7169 9.62933 20.7273 11.9993 20.7273C14.3695 20.7273 14.6661 20.7169 15.597 20.6745C16.526 20.632 17.1609 20.4849 17.7162 20.2691C18.29 20.0462 18.7761 19.7473 19.261 19.2618C19.7465 18.7767 20.0447 18.2898 20.2683 17.716C20.4828 17.1609 20.6301 16.5265 20.6737 15.5978C20.7155 14.6669 20.7264 14.3702 20.7264 12C20.7264 9.6298 20.7155 9.33234 20.6737 8.40143C20.6301 7.47234 20.4828 6.83816 20.2683 6.28325C20.0447 5.70925 19.7465 5.22234 19.261 4.73725C18.7756 4.2518 18.2902 3.95361 17.7156 3.73089C17.1593 3.51507 16.5248 3.36798 15.5957 3.32543C14.6648 3.28307 14.3685 3.27271 11.9976 3.27271H12.0003ZM11.2175 4.84543C11.4498 4.84507 11.7091 4.84543 12.0003 4.84543C14.3305 4.84543 14.6066 4.8538 15.5268 4.89561C16.3777 4.93452 16.8395 5.07671 17.1471 5.19616C17.5544 5.35434 17.8447 5.54343 18.15 5.84889C18.4554 6.15434 18.6445 6.44525 18.8031 6.85252C18.9225 7.1598 19.0649 7.62161 19.1036 8.47252C19.1454 9.39252 19.1545 9.66889 19.1545 11.998C19.1545 14.3271 19.1454 14.6034 19.1036 15.5234C19.0647 16.3743 18.9225 16.8362 18.8031 17.1434C18.6449 17.5507 18.4554 17.8407 18.15 18.146C17.8445 18.4514 17.5545 18.6405 17.1471 18.7987C16.8398 18.9187 16.3777 19.0605 15.5268 19.0994C14.6068 19.1413 14.3305 19.1503 12.0003 19.1503C9.67006 19.1503 9.39388 19.1413 8.47391 19.0994C7.62303 19.0602 7.16122 18.918 6.85341 18.7985C6.44615 18.6403 6.15525 18.4513 5.84981 18.1458C5.54436 17.8403 5.35528 17.5502 5.19674 17.1427C5.07729 16.8354 4.93493 16.3736 4.8962 15.5227C4.85438 14.6027 4.84602 14.3263 4.84602 11.9958C4.84602 9.66525 4.85438 9.39034 4.8962 8.47034C4.93511 7.61943 5.07729 7.15761 5.19674 6.84998C5.35491 6.4427 5.54436 6.1518 5.84981 5.84634C6.15525 5.54089 6.44615 5.3518 6.85341 5.19325C7.16104 5.07325 7.62303 4.93143 8.47391 4.89234C9.27898 4.85598 9.59097 4.84507 11.2175 4.84325V4.84543ZM16.6588 6.29452C16.0806 6.29452 15.6115 6.76307 15.6115 7.34143C15.6115 7.91961 16.0806 8.38871 16.6588 8.38871C17.2369 8.38871 17.706 7.91961 17.706 7.34143C17.706 6.76325 17.2369 6.29416 16.6588 6.29416V6.29452ZM12.0003 7.51816C9.52533 7.51816 7.51867 9.52489 7.51867 12C7.51867 14.4751 9.52533 16.4809 12.0003 16.4809C14.4754 16.4809 16.4813 14.4751 16.4813 12C16.4813 9.52489 14.4754 7.51816 12.0003 7.51816ZM12.0003 9.09089C13.6068 9.09089 14.9094 10.3933 14.9094 12C14.9094 13.6065 13.6068 14.9091 12.0003 14.9091C10.3937 14.9091 9.09135 13.6065 9.09135 12C9.09135 10.3933 10.3937 9.09089 12.0003 9.09089Z" fill="white"/>
</g>
<defs>
<radialGradient id="paint0_radial_1_848" cx="0" cy="0" r="1" gradientUnits="userSpaceOnUse" gradientTransform="translate(6.46134 25.6365) rotate(-90) scale(23.4234 21.7909)">
<stop stop-color="#FFDD55"/>
<stop offset="0.1" stop-color="#FFDD55"/>
<stop offset="0.5" stop-color="#FF543E"/>
<stop offset="1" stop-color="#C837AB"/>
</radialGradient>
<radialGradient id="paint1_radial_1_848" cx="0" cy="0" r="1" gradientUnits="userSpaceOnUse" gradientTransform="translate(-3.77793 1.8844) rotate(78.678) scale(10.4705 43.1693)">
<stop stop-color="#3771C8"/>
<stop offset="0.128" stop-color="#3771C8"/>
<stop offset="1" stop-color="#6600FF" stop-opacity="0"/>
</radialGradient>
<clipPath id="clip0_1_848">
<rect width="24" height="24" fill="white"/>
</clipPath>
</defs>
</svg>
